# xmcd
#
# Track frame offsets:
#	150
#	24576
#	44214
#	66718
#	85911
#	102216
#	122559
#	140304
#	158625
#	182081
#	203233
#	222586
#	239567
#	258905
#	274091
#
# Disc length: 3963 seconds
#
# Revision: 0
# Processed by: cddbd v1.4PL0 Copyright (c) Steve Scherf et al.
# Submitted via: dBpowerAMP V4.0
#
DISCID=e50f790f
DTITLE=Tim McGraw - Tim McGraw
DYEAR=1900
DGENRE=Country
TTITLE0=Comfort Me
TTITLE1=Tickin' Away
TTITLE2=Home
TTITLE3=Red Ragtop
TTITLE4=That's Why God Made Mexico
TTITLE5=Watch The Wind Blow By
TTITLE6=Illegal
TTITLE7=Sleep Tonight
TTITLE8=I Know How To Love You Well
TTITLE9=Sing Me Home
TTITLE10=She's My Kind Of Rain
TTITLE11=Who Are They
TTITLE12=Real Good Man
TTITLE13=All We Ever Find
TTITLE14=Tiny Dancer
EXTD=
EXTT0=
EXTT1=
EXTT2=
EXTT3=
EXTT4=
EXTT5=
EXTT6=
EXTT7=
EXTT8=
EXTT9=
EXTT10=
EXTT11=
EXTT12=
EXTT13=
EXTT14=
PLAYORDER=
